<?xml version="1.0"?>
<svg xmlns="http://www.w3.org/2000/svg" height="512px" viewBox="0 -36 512 512" width="512px" class=""><g><path d="m452 0h-392c-33.085938 0-60 26.914062-60 60v240c0 33.085938 26.914062 60 60 60h176v40h-104v40h248v-40h-104v-40h176c33.085938 0 60-26.914062 60-60v-240c0-33.085938-26.914062-60-60-60zm20 300c0 11.027344-8.972656 20-20 20h-392c-11.027344 0-20-8.972656-20-20v-240c0-11.027344 8.972656-20 20-20h392c11.027344 0 20 8.972656 20 20zm-276-199.878906h40v160h-40v-60h-40v60h-40v-160h40v60h40zm140 0h-60v160h60c33.085938 0 60-26.914063 60-60v-40c0-33.082032-26.914062-60-60-60zm20 100c0 11.027344-8.972656 20-20 20h-20v-80h20c11.027344 0 20 8.972656 20 20zm0 0" data-original="#000000" class="active-path" data-old_color="#F0E4E4" fill="#F2EEEE"/></g> </svg>
